<svg viewBox="0 0 190 64" fill="none" xmlns="http://www.w3.org/2000/svg">
<path d="M0.045772 30.1557C0.4541 22.3528 3.71303 14.9713 9.20399 9.41248C14.6949 3.85361 22.0358 0.504209 29.833 0C23.1979 2.8247 17.7156 7.81407 14.28 14.1544C10.8444 20.4948 9.65841 27.8121 10.9152 34.9131C12.1721 42.014 15.7976 48.4797 21.2007 53.2557C26.6038 58.0317 33.4657 60.8362 40.6672 61.2118C41.9078 61.287 43.1517 61.287 44.3923 61.2118C39.9268 63.125 35.0793 63.9797 30.2287 63.7089C26.0427 63.4907 21.9407 62.4494 18.1575 60.6444C14.3743 58.8395 10.9841 56.3064 8.18073 53.19C5.37739 50.0737 3.21595 46.4352 1.82007 42.4827C0.424201 38.5302 -0.178733 34.3414 0.045772 30.1557Z" fill="#295135"/>
<path d="M12.314 27.7815C12.4341 25.3753 12.8464 22.9926 13.542 20.686C13.2386 22.0785 13.047 23.493 12.9689 24.916C12.6334 31.2684 14.645 37.5224 18.621 42.4879C22.597 47.4534 28.2597 50.7839 34.5317 51.8455C40.8037 52.9072 47.2471 51.6258 52.6358 48.2454C58.0244 44.8649 61.9822 39.6213 63.7559 33.5124C63.5016 38.5597 62.0499 43.474 59.5206 47.8492C56.9914 52.2244 53.4572 55.9348 49.2102 58.674C46.4459 59.3313 43.6008 59.584 40.7639 59.4244C36.8151 59.2238 32.9448 58.2451 29.3754 56.5445C25.8059 54.8438 22.6075 52.4548 19.9639 49.5145C17.3204 46.5743 15.2837 43.1407 13.9709 39.4111C12.6581 35.6815 12.095 31.7293 12.314 27.7815Z" fill="#80BC00"/>
<path d="M26.2875 22.5142C26.2875 22.3914 26.2875 22.2823 26.383 22.2823C26.4785 22.2823 26.4785 22.3914 26.4785 22.5142C26.4785 22.6371 26.4785 22.7599 26.383 22.7599C26.2875 22.7599 26.2875 22.5961 26.2875 22.5142ZM25.728 22.5142C25.728 22.3369 25.8236 22.2004 25.9464 22.2004C26.0692 22.2004 26.1647 22.3369 26.1647 22.5142C26.1647 22.6916 26.0692 22.8417 25.9464 22.8417C25.8236 22.8417 25.728 22.6916 25.728 22.5142ZM25.2504 22.6507C25.2504 22.6145 25.2648 22.5798 25.2904 22.5542C25.316 22.5286 25.3507 22.5142 25.3869 22.5142C25.4231 22.5142 25.4578 22.5286 25.4834 22.5542C25.509 22.5798 25.5234 22.6145 25.5234 22.6507C25.5234 22.6869 25.509 22.7216 25.4834 22.7472C25.4578 22.7728 25.4231 22.7872 25.3869 22.7872C25.3507 22.7872 25.316 22.7728 25.2904 22.7472C25.2648 22.7216 25.2504 22.6869 25.2504 22.6507ZM24.882 21.8729C24.882 21.7911 25.0731 21.7228 25.305 21.7228C25.537 21.7228 25.728 21.7911 25.728 21.8729C25.728 21.9548 25.537 22.0367 25.305 22.0367C25.0731 22.0367 24.882 21.9684 24.882 21.8729ZM54.7102 28.6955C54.7102 28.5317 54.7102 28.3953 54.8057 28.3953C54.9012 28.3953 54.9149 28.5317 54.9149 28.6955C54.9149 28.8592 54.9149 28.9957 54.8057 28.9957C54.6965 28.9957 54.7102 28.9274 54.7102 28.7637V28.6955ZM55.1059 28.4771C55.1059 28.4771 55.2424 28.3953 55.4061 28.3953C55.5698 28.3953 55.7063 28.3953 55.7063 28.4771C55.7063 28.559 55.5698 28.559 55.4061 28.559C55.2424 28.559 55.1059 28.5863 55.1059 28.5454V28.4771ZM55.1059 27.6039C55.1059 27.3173 55.1059 27.0854 55.2287 27.0854C55.3515 27.0854 55.3515 27.3173 55.3515 27.6039C55.3515 27.8904 55.3515 28.1224 55.2287 28.1224C55.1059 28.1224 55.065 27.9586 55.065 27.6721L55.1059 27.6039ZM55.2287 26.6214C55.2287 26.5396 55.3515 26.485 55.488 26.485C55.6244 26.485 55.7472 26.485 55.7472 26.6214C55.7472 26.7579 55.6381 26.7579 55.488 26.7579C55.3379 26.7579 55.1878 26.7715 55.1878 26.6896L55.2287 26.6214ZM55.5971 24.7247C55.7609 24.3836 55.9519 24.138 56.0474 24.179C56.1429 24.2199 56.0474 24.5337 55.9383 24.8749C55.8291 25.216 55.5835 25.4616 55.488 25.4207C55.3924 25.3797 55.4061 25.1477 55.5562 24.793L55.5971 24.7247ZM37.3127 16.6742C37.3127 16.4831 37.3946 16.333 37.5037 16.333C37.6129 16.333 37.7084 16.4831 37.7084 16.6742C37.7084 16.8652 37.6129 17.0153 37.5037 17.0153C37.3946 17.0153 37.2718 16.9334 37.2718 16.7424L37.3127 16.6742ZM41.2971 17.7385L41.6109 17.8613H41.338L41.2971 17.7385ZM36.3848 16.797C36.3847 16.7778 36.3887 16.7589 36.3964 16.7414C36.4041 16.7239 36.4154 16.7082 36.4295 16.6953C36.4437 16.6824 36.4604 16.6727 36.4785 16.6667C36.4967 16.6607 36.5159 16.6586 36.535 16.6605C36.5529 16.6605 36.5706 16.664 36.5872 16.6709C36.6037 16.6778 36.6188 16.6878 36.6314 16.7005C36.6441 16.7131 36.6542 16.7282 36.661 16.7447C36.6679 16.7613 36.6714 16.779 36.6714 16.797C36.6683 16.8321 36.6529 16.8651 36.628 16.89C36.603 16.915 36.5701 16.9303 36.535 16.9334C36.5162 16.9477 36.4944 16.9573 36.4712 16.9616C36.4481 16.9658 36.4243 16.9646 36.4017 16.9579C36.3791 16.9513 36.3584 16.9395 36.3413 16.9233C36.3241 16.9072 36.311 16.8873 36.303 16.8652L36.3848 16.797ZM44.5719 16.2921L44.7766 16.6605C44.7766 16.6605 44.6128 16.4967 44.2444 16.8652C43.876 17.2336 45.1313 17.8613 45.2951 17.4246C45.3476 17.056 45.26 16.6811 45.0495 16.374C45.0304 16.2421 44.9758 16.118 44.8917 16.0146C44.8076 15.9113 44.6971 15.8327 44.5719 15.7872C44.1216 15.6098 44.6538 15.2278 44.8448 15.5007C45.0358 15.7736 45.2541 15.5007 45.2541 15.5007C45.2541 15.5007 45.4179 14.5864 44.7356 15.0367C44.0534 15.487 44.1762 14.6274 43.9306 15.4188C43.685 16.2102 44.49 16.3603 44.49 16.3603L44.5719 16.2921ZM49.2112 10.5202C52.2012 12.2366 54.5092 14.9301 55.7472 18.1478C55.6675 18.2541 55.6244 18.3834 55.6244 18.5162C55.6244 18.6491 55.6675 18.7784 55.7472 18.8847C56.0201 19.2531 55.8428 19.8534 55.6381 19.6488C55.4334 19.4441 55.5562 18.8847 55.5562 18.8847C55.5562 18.8847 55.2014 18.8847 55.2696 18.2979C55.3379 17.7112 55.1605 18.6254 54.9968 18.4207C54.8683 18.234 54.7629 18.0324 54.6829 17.8203C54.6829 17.8203 54.3145 18.5299 54.6829 18.6117C55.0513 18.6936 55.1741 18.7755 55.1059 19.103C55.0377 19.4305 54.8739 19.2258 55.2287 19.8262C55.5835 20.4265 55.5289 21.3271 54.9968 21.4909C54.4646 21.6546 55.3106 21.8184 54.8739 21.9685C54.4373 22.1185 54.1098 21.832 54.1098 22.0776C54.1098 22.3232 54.6147 22.3232 54.4646 22.7599C54.3145 23.1965 54.0007 22.678 54.0007 22.678C54.0007 22.678 54.1098 21.9957 53.8642 22.0776C53.6186 22.1595 53.7004 23.0464 54.1507 23.3602C54.601 23.6741 54.3554 24.7248 54.0007 24.6429C53.6459 24.561 53.7687 24.9294 53.7823 24.984C53.6751 24.5998 53.4893 24.242 53.2365 23.9333C52.95 23.7287 53.3457 24.8885 53.1547 24.8066C52.9636 24.7247 53.3184 25.3251 53.3184 25.3251L53.4275 26.1302C53.4275 26.1302 53.8642 26.8943 53.5913 26.8124C53.3991 26.6618 53.2473 26.4657 53.1496 26.2418C53.052 26.0179 53.0115 25.7732 53.0319 25.5298C53.1274 25.0795 52.4314 24.9704 52.8272 24.5337C53.2229 24.0971 52.3087 23.524 52.718 23.1692C53.1274 22.8145 52.3087 22.9782 52.3087 23.292C52.3087 23.6059 52.2268 22.4051 51.9539 22.1731C51.681 21.9412 51.8311 21.4227 51.8311 21.4227C51.8311 21.4227 51.3262 22.0367 51.1215 21.8047C50.9168 21.5728 50.9987 22.446 50.6303 22.7599C50.2619 23.0737 50.2346 23.101 50.3165 23.5649C50.3509 23.9414 50.3138 24.321 50.2073 24.6838C50.2073 24.6838 50.5621 24.329 50.5621 24.8885C50.5621 25.4479 50.6712 26.1302 50.4393 25.7618C50.2706 25.4499 50.1509 25.114 50.0845 24.7657C50.0845 24.7657 50.0845 25.3934 49.9071 25.3251C49.7297 25.2569 49.798 24.4382 49.798 24.4382C49.798 24.4382 49.1703 24.4382 49.2112 23.333C49.2522 22.2277 48.4062 22.7326 48.72 21.7365C48.72 21.7365 48.1196 21.7365 48.1196 21.0542C48.1196 20.372 47.6557 20.795 47.6148 20.4948C47.5738 20.1946 47.0007 21.0815 46.4003 20.4948C45.7999 19.908 46.0865 19.8398 45.568 20.0308C45.0495 20.2219 44.9403 19.1576 44.7356 19.0757C44.531 18.9938 44.4082 19.2667 44.4082 19.2667L44.7356 19.8398C44.7356 19.8398 44.8039 19.4578 44.8857 19.5806C44.9229 19.756 44.9229 19.9373 44.8857 20.1127L45.2541 20.6722C45.2541 20.6722 45.759 20.6039 45.7999 20.3856C45.8409 20.1673 46.0865 20.3856 46.0865 20.3856C46.0865 20.3856 46.8643 20.945 46.605 21.177C46.3457 21.409 46.605 21.9275 46.0865 22.4187C45.8025 22.6992 45.4633 22.9176 45.0904 23.06C45.0904 23.06 44.49 23.6331 44.2854 23.5376C44.0901 23.4359 43.9223 23.2885 43.7964 23.1079C43.6705 22.9274 43.5901 22.719 43.5622 22.5006C43.5622 21.9821 42.6889 21.2998 42.6889 20.8632C42.6889 20.4266 42.2522 19.908 42.2522 19.6624C42.2522 19.4168 41.993 19.5533 41.9247 19.3895C41.8565 19.2258 42.0066 19.9899 42.0066 19.9899L43.0164 22.2686C43.0164 22.2686 43.2074 23.2647 43.5212 23.2647C43.8351 23.2647 43.9715 23.4558 43.9715 23.7423C43.9715 24.0288 43.7395 24.1789 44.6128 23.8651C45.4861 23.5513 45.759 23.6058 45.4452 24.329C45.1286 24.856 44.8896 25.4259 44.7356 26.021C44.8039 26.2121 44.0943 26.2121 44.0124 26.6487C43.9306 27.0854 43.453 28.0132 43.3302 28.0132C43.2074 28.0132 43.3302 28.6954 43.5212 28.8865C43.7123 29.0775 44.0807 29.5278 43.8896 29.8417C43.6986 30.1555 43.9579 30.4421 43.5622 30.7559C43.1665 31.0697 42.7571 31.0834 42.9754 31.4791C43.1938 31.8748 43.2893 32.0385 42.9754 32.1204C42.6616 32.2023 42.9754 32.4751 42.8253 32.6389C42.6752 32.8026 41.9247 33.403 41.9247 33.403C41.9247 33.403 41.3926 33.5531 41.1743 33.403C40.956 33.2529 40.7513 33.8397 40.5876 33.4849C40.4238 33.1301 40.4101 32.8163 40.1372 32.6116C39.8643 32.4069 39.455 32.3114 39.4959 31.8475C39.5369 31.3836 38.5407 30.8241 38.4998 30.019C38.4589 29.214 38.8546 29.5824 38.5817 28.7364C38.3088 27.8904 38.3088 27.6584 37.9813 27.3719C37.6539 27.0854 37.2581 27.6585 37.6265 26.1029C37.995 24.5474 37.1763 25.5435 37.1763 25.5435C37.1763 25.5435 36.9852 25.7208 36.6714 25.2433C36.3575 24.7657 36.303 24.9294 35.9482 25.0522C35.5934 25.175 35.3751 25.6663 34.9385 25.2296C34.5018 24.793 34.5155 25.6117 34.5155 25.6117C34.5155 25.6117 33.5876 24.9294 33.7104 24.6975C33.8332 24.4655 33.9014 24.2881 33.342 24.0152C32.7825 23.7423 32.7689 23.5376 32.878 23.2647C32.9872 22.9918 32.5506 22.8827 32.878 22.3914C33.2055 21.9002 32.7143 21.3817 33.11 20.7813C33.5057 20.181 33.3966 19.6897 34.0242 19.5396C34.6519 19.3895 34.0242 19.3895 34.0242 19.3895C34.0242 19.3895 34.3108 18.1069 34.8566 18.025C35.4024 17.9431 34.5427 17.6703 34.5427 17.6703C34.462 17.5649 34.4096 17.4406 34.3905 17.3092C34.3714 17.1778 34.3862 17.0438 34.4336 16.9198C34.6246 16.565 34.2562 15.9646 34.8157 15.9646C35.3751 15.9646 35.7026 16.3603 35.8254 15.9646C35.9482 15.5689 35.9346 15.0094 35.4161 15.2005C34.8975 15.3915 35.8936 14.3681 36.2757 14.5455C36.0709 14.4209 35.8438 14.3375 35.6071 14.2999C35.6071 14.3954 35.4843 14.45 35.4979 14.3681C35.5116 14.2863 35.4979 14.2999 35.6071 14.2999C35.7162 14.2999 35.8663 13.836 35.8663 13.836L35.4161 13.7132C35.4161 13.7132 35.7162 14.1498 35.0749 14.4773C34.4336 14.8048 34.5837 13.836 34.5837 13.836C34.5837 13.836 35.3069 13.7541 35.3069 13.5631C35.3069 13.372 35.4706 13.2492 35.6753 13.0446C35.88 12.8399 36.4394 12.7171 36.3439 13.1946C36.3141 13.5189 36.4012 13.8432 36.5895 14.1089C36.5895 14.1089 37.0671 14.1089 37.2308 13.9179C37.3795 13.7782 37.5729 13.696 37.7766 13.6859C37.7766 13.6859 37.6129 13.2629 37.7766 13.1537C37.8156 13.1284 37.8599 13.1126 37.906 13.1073C37.9522 13.1021 37.9989 13.1076 38.0425 13.1235C38.0862 13.1393 38.1256 13.1651 38.1576 13.1988C38.1896 13.2325 38.2133 13.2731 38.2269 13.3175C38.2925 13.4875 38.4005 13.6378 38.5408 13.7541L39.1002 13.4812L39.7006 13.3175C39.7006 13.3175 39.7006 12.8535 39.8643 12.7307C40.0281 12.6079 40.7649 12.1167 40.9287 12.4714C41.0924 12.8262 41.2562 11.5709 40.9287 11.68C40.6012 11.7892 40.7786 12.0758 40.3283 12.1986C39.878 12.3214 39.8234 11.9666 39.8234 11.9666L40.3692 11.489C40.3692 11.489 40.2055 11.1888 39.9326 11.489C39.6597 11.7892 39.4141 11.721 39.3731 12.0075C39.3322 12.2941 39.6324 12.5124 39.223 12.6079C39.11 12.6355 39.0095 12.7002 38.9377 12.7918C38.8659 12.8834 38.8271 12.9964 38.8273 13.1128C38.8273 13.1128 38.2269 13.1128 38.1451 12.799C38.0632 12.4851 38.2542 12.1576 37.7766 12.5124C37.299 12.8671 36.9852 12.8399 37.1763 12.5124C37.4525 12.2179 37.781 11.9774 38.1451 11.8028C38.2679 11.8028 38.6499 11.721 38.6499 11.4071C38.6726 11.2925 38.718 11.1836 38.7834 11.0869C38.8489 10.9902 38.9331 10.9076 39.0311 10.844C39.129 10.7804 39.2388 10.737 39.3538 10.7166C39.4688 10.6961 39.5867 10.6989 39.7006 10.7249C40.2464 10.875 40.8195 10.2883 40.8195 10.2883C40.6807 10.1053 40.5064 9.95222 40.3071 9.83824C40.1077 9.72427 39.8874 9.65171 39.6593 9.62495C39.4312 9.5982 39.2001 9.61777 38.9797 9.6825C38.7594 9.74724 38.5544 9.8558 38.377 10.0017C36.7396 10.9568 36.5349 10.2064 37.0944 10.2883C37.6538 10.3701 37.8995 9.87891 38.2269 9.68787C38.5544 9.49684 38.2269 8.73269 37.5037 9.31943C36.9164 9.68026 36.2115 9.79778 35.5389 9.64694L35.6753 9.2785C37.2029 8.55305 38.8843 8.21117 40.5739 8.28243C42.5887 8.29456 44.5867 8.64986 46.4822 9.33309C47.8467 9.64693 46.0456 9.76974 45.7999 9.68787C45.5543 9.606 43.8896 9.23756 43.8896 9.23756C43.8896 9.23756 43.8896 9.83797 43.1255 9.60601C42.3578 9.40347 41.5714 9.28 40.7786 9.23756C41.8975 9.38766 41.2834 9.68786 41.0242 9.75608L41.7747 9.68787C41.7747 9.68787 41.0105 10.6021 41.338 10.3701C41.6655 10.1382 42.0476 9.64691 42.4842 10.0017C42.9208 10.3565 42.2522 10.0836 41.9247 10.3701C41.5973 10.6567 41.6518 10.5338 41.9247 10.7658C42.1172 10.9142 42.3506 10.9999 42.5933 11.0114H42.9209L43.2756 10.8341L43.876 11.0524L44.3536 10.9159L44.6674 10.6839C44.6674 10.6839 43.7122 10.684 43.7941 10.3292C43.876 9.97442 44.6674 10.411 44.7493 10.0426C44.8312 9.6742 46.2229 10.6157 46.9871 10.0426C47.7512 9.46952 46.9871 10.2883 46.9871 10.2883L45.9091 10.4111C45.6635 10.4111 45.0768 10.2064 45.1177 10.4111C45.1862 10.6367 45.3079 10.8426 45.4725 11.0114C45.4725 11.0114 45.8682 10.4929 46.3048 10.8067C46.7414 11.1206 46.4549 10.1654 47.1781 10.643C47.9013 11.1206 47.2736 9.87889 47.7512 10.0563C48.2288 10.2337 47.6693 10.6157 48.2697 10.8613C48.8701 11.1069 49.1293 10.5885 49.1293 10.5885L49.2112 10.5202ZM35.4297 17.9431C35.7446 17.712 36.0778 17.5067 36.4258 17.3291C36.7533 17.22 37.3673 17.3291 37.5856 17.3291C37.8039 17.3291 37.9813 17.4656 37.9813 17.7794C37.9813 18.0932 37.2172 18.4617 37.6265 18.4617C38.0359 18.4617 38.0632 18.1205 38.3907 18.2979C38.7182 18.4753 38.8137 18.9665 39.1411 18.7755C39.4686 18.5845 39.7552 18.0659 39.9872 18.2297C40.2191 18.3934 40.4784 18.6936 40.6967 18.6936C40.915 18.6936 41.2834 18.8437 41.4199 18.6936C41.5563 18.5435 42.5524 19.2258 42.2659 18.5435C42.089 18.2278 42.0449 17.8548 42.1431 17.5065L41.6928 17.7385C41.6928 17.7385 41.2425 17.5065 41.0924 17.5474C40.9423 17.5884 40.7513 17.8886 40.6694 17.7385C40.6243 17.6198 40.6243 17.4887 40.6694 17.3701L40.492 17.2199L40.5876 16.7833L40.6694 16.4558L41.0515 16.3467C41.0515 16.3467 41.9111 15.9646 42.1431 16.1829C42.7707 16.7833 43.1801 16.3057 43.1801 16.3057C43.1801 16.3057 42.5797 15.951 42.8117 15.8691C43.0436 15.7872 42.9754 15.3233 42.7298 15.3915C42.4842 15.4597 42.3887 15.6644 42.2249 15.5825C42.0356 15.5461 41.8412 15.5461 41.6519 15.5825L41.4199 15.3096L41.0924 15.6644L40.8195 16.142L40.6694 16.3467L40.492 16.142L40.301 16.4558H40.5876L40.301 16.7151L40.0144 16.7833L40.2191 17.1381C40.2191 17.1381 39.9326 17.3837 40.0144 17.6293C40.0963 17.8749 39.8643 17.8203 39.8643 17.8203C39.8643 17.8203 39.3049 17.3837 39.5778 17.0289C39.8507 16.6742 39.646 16.797 39.4959 16.6742C39.3458 16.5513 39.032 16.1829 39.032 16.1829L38.3088 15.6644L38.4589 16.0738L38.9501 16.4558L39.1821 16.6196C39.1821 16.6196 39.3322 16.988 39.1821 16.947C39.032 16.9061 38.9911 16.8515 38.9501 17.0971C38.9176 17.2429 38.8295 17.3702 38.7045 17.4519C38.7045 17.4519 38.7045 17.8886 38.5408 17.7794C38.377 17.6702 38.377 17.3837 38.2269 17.2609C38.0768 17.1381 38.1587 16.8788 38.3907 17.0289C38.6226 17.179 38.7864 17.0289 38.7455 16.8242C38.7045 16.6196 38.0632 16.8242 38.0223 16.5377C37.9813 16.2511 37.8312 16.0328 37.6675 15.9919C37.5037 15.951 37.2581 16.1829 37.2581 16.1829L36.6714 16.3467C36.6714 16.3467 36.7806 16.3467 36.494 16.6196C36.2075 16.8925 36.1119 16.9198 36.1119 17.0699C36.1119 17.22 35.9619 17.2336 35.7981 17.3427C35.6644 17.4593 35.5653 17.6104 35.5116 17.7794L35.4297 17.9431ZM42.1021 26.9352C42.1021 27.1672 42.1021 27.3582 42.2386 27.3582C42.375 27.3582 42.3751 27.1672 42.3751 26.9352C42.3751 26.7033 42.3068 26.5259 42.2386 26.5259C42.1704 26.5259 42.0203 26.6897 42.0203 26.9626L42.1021 26.9352ZM55.2696 23.6741C55.2696 23.2647 55.3652 22.9236 55.488 22.9236C55.6108 22.9236 55.7063 23.2647 55.7063 23.6741C55.7063 24.0834 55.6108 24.4109 55.488 24.4109C55.3652 24.4109 55.1878 24.0971 55.1878 23.7014L55.2696 23.6741ZM55.2696 21.9275C55.2696 21.7365 55.3515 21.5727 55.447 21.5727C55.5425 21.5727 55.6244 21.7365 55.6244 21.9275C55.6244 22.1186 55.5425 22.2959 55.447 22.2959C55.3515 22.2959 55.2287 22.1595 55.2287 21.9548L55.2696 21.9275ZM55.87 20.331C55.87 20.1127 55.9792 19.9353 56.102 19.9353C56.2248 19.9353 56.3476 20.1127 56.3476 20.331C56.3476 20.5493 56.2385 20.7267 56.102 20.7267C55.9656 20.7267 55.8291 20.5766 55.8291 20.3583L55.87 20.331ZM55.5426 29.0366V28.7227L55.8291 28.9547C55.8291 28.9547 56.102 28.9547 55.7472 29.3914C55.3925 29.828 55.911 29.9918 55.911 29.9918C55.5951 30.894 55.164 31.7517 54.6283 32.5434C54.6283 32.5434 54.0279 32.4752 53.9461 32.9527C53.8642 33.4303 53.3866 33.3894 53.0319 33.3894C52.6771 33.3894 53.3866 32.7481 53.3866 32.7481C53.3225 32.4204 53.3808 32.0805 53.5504 31.7929C53.5333 31.6501 53.546 31.5054 53.5879 31.3679C53.6297 31.2303 53.6997 31.103 53.7933 30.9939C53.887 30.8849 54.0023 30.7964 54.132 30.7343C54.2616 30.6722 54.4028 30.6377 54.5464 30.6331L54.833 30.0736C54.833 30.0736 54.9558 30.0736 55.1059 29.637C55.256 29.2003 55.4334 29.637 55.4334 29.637L55.5426 29.0366ZM54.2736 26.4031C54.2736 26.4031 54.5465 26.6487 54.4646 26.1165C54.3827 25.5844 54.9149 25.0795 55.065 25.407C55.2151 25.7345 55.1878 25.8027 55.1878 25.8027C55.1878 25.8027 54.833 26.1166 55.024 26.2394C55.2151 26.3622 54.8739 26.9216 54.8739 27.3582C54.8739 27.7949 54.5464 27.9586 54.1507 27.4401C54.0491 27.287 54.0019 27.1042 54.0168 26.9211C54.0316 26.7379 54.1077 26.5651 54.2326 26.4304L54.2736 26.4031ZM52.5133 25.6799C52.5133 25.6799 52.8681 25.5298 53.0319 26.444C53.1956 27.3583 53.796 26.8397 53.796 27.3173C53.796 27.7949 53.4276 28.2452 53.796 28.3134C54.1644 28.3816 54.6283 27.754 54.3554 28.559C54.0825 29.3641 53.3866 28.4362 53.3866 28.4362C53.3866 28.4362 53.6732 27.6448 53.3866 27.713C53.1001 27.7812 52.6771 27.5629 52.718 27.0035C52.7589 26.444 52.909 26.2393 52.718 26.1165C52.527 25.9937 52.4724 25.7072 52.4724 25.7072L52.5133 25.6799ZM44.8448 30.2783C44.8448 30.2783 45.1723 29.3232 45.3633 29.5142C45.5544 29.7052 45.8136 29.9918 45.5271 30.7968C45.2405 31.6019 45.6089 31.3972 45.2132 31.9566C44.8175 32.5161 44.7356 32.1477 44.531 32.1067C44.3263 32.0658 44.4082 31.6291 44.531 31.2744C44.6538 30.9196 44.0124 31.0697 44.1762 30.674C44.2366 30.5607 44.3272 30.4662 44.438 30.4012C44.5488 30.3362 44.6754 30.3031 44.8039 30.3056L44.8448 30.2783ZM24.923 22.8827C24.8578 23.2803 24.8578 23.6858 24.923 24.0834C25.0458 24.4928 25.0458 24.2881 25.4142 24.0834C25.7826 23.8787 25.4824 23.7696 25.6052 23.5649C25.728 23.3602 25.769 23.1692 25.9736 23.5649C26.1783 23.9606 26.2056 23.9606 26.4922 23.7286C26.7787 23.4967 26.4922 23.9606 26.8879 24.1244C27.2836 24.2881 26.9697 24.8476 27.2426 24.7657C27.5155 24.6838 27.8021 24.7657 28.0477 25.2433C28.2933 25.7208 27.8021 26.1165 28.3615 26.1165C28.921 26.1165 28.8391 26.5668 29.3167 26.5668C29.7943 26.5668 29.3167 27.0853 30.1627 27.2354C31.0087 27.3855 30.0399 28.9547 30.0399 29.1185C30.0399 29.2822 30.4765 31.1516 29.958 30.9196C29.9032 30.8807 29.8385 30.8581 29.7714 30.8545C29.7043 30.8509 29.6375 30.8665 29.5789 30.8994C29.5203 30.9323 29.4722 30.9811 29.4403 31.0403C29.4084 31.0994 29.3939 31.1664 29.3986 31.2334C29.7943 32.0658 29.2758 31.8748 29.3986 32.2295C29.5214 32.5843 29.1256 32.9118 29.1256 32.9118C29.1256 33.7851 28.6481 33.0346 28.7572 33.2666C28.8664 33.4986 28.3615 33.3894 28.7572 33.5941C29.1529 33.7987 28.5253 33.9898 29.0028 34.1126C29.4804 34.2354 29.3986 34.6311 29.7533 34.863C30.1081 35.095 31.9093 35.2588 30.2446 35.2315C29.7028 35.1615 29.1875 34.956 28.7462 34.634C28.305 34.312 27.9521 33.884 27.7202 33.3894C26.6832 32.789 27.3245 32.0249 26.9697 31.8748C26.615 31.7247 26.9698 31.1925 26.6423 30.7559C26.3148 30.3193 26.6423 29.3914 26.1238 29.0775C25.6052 28.7637 25.8099 28.3134 25.3732 27.9177C24.9366 27.522 24.9639 26.1984 24.8547 25.9665C24.7456 25.7345 25.2095 25.4889 25.2095 24.8066C25.2203 24.6886 25.2203 24.5698 25.2095 24.4518C25.2095 24.4518 25.1277 24.5746 24.8957 24.4518C24.6637 24.329 24.882 22.91 24.882 22.91L24.923 22.8827ZM29.1939 13.2629C29.1939 13.2629 29.1939 13.5085 29.1939 13.7541C29.1939 13.9997 28.7572 13.8769 28.7163 13.8633C28.6754 13.8496 28.8937 13.9451 28.8255 14.2317C28.7572 14.5182 28.3479 14.2317 28.3479 14.2317L27.9931 14.7502C27.9931 14.7502 27.9112 15.5416 28.2251 14.8593C28.5389 14.1771 28.5116 14.7502 28.5116 14.7502C28.5116 14.7502 28.5116 15.064 28.7027 15.1459C28.8937 15.2278 29.112 15.1459 29.153 15.2687C29.1939 15.3915 28.7436 15.9373 28.7436 15.9373C28.7436 15.9373 29.0302 15.6235 29.112 15.9373C29.1939 16.2511 29.112 16.6605 28.5526 16.6605C27.9931 16.6605 28.5526 15.9782 28.5526 15.9782C28.5526 15.9782 27.5565 16.4558 27.5155 16.8652C27.4746 17.2745 28.1841 16.7833 28.1841 16.7833C28.1867 16.9294 28.1603 17.0746 28.1065 17.2105C28.0526 17.3463 27.9724 17.4701 27.8703 17.5747C27.5155 17.9841 27.3109 17.9022 27.3109 17.5747C27.3109 17.2473 26.997 17.6975 26.9561 18.1342C26.9151 18.5708 26.4785 18.1342 26.4785 18.4207C26.4785 18.7073 26.151 18.8573 26.151 19.3349C26.151 19.8125 25.4415 20.331 25.4415 20.331C25.4415 20.331 25.5916 21.3681 25.1549 21.3681C25.0458 21.3681 24.9912 21.3681 24.9912 21.3681C25.2324 21.0315 25.3482 20.6212 25.3187 20.2082C25.3187 18.9802 26.997 17.4792 26.5194 17.8613C26.0418 18.2433 26.1101 17.8613 26.1101 17.8613C26.7663 16.1274 27.8067 14.5646 29.153 13.2902L29.1939 13.2629ZM34.2699 9.96075L34.1471 10.2746C34.4189 10.1101 34.7015 9.96417 34.9931 9.83795C35.4297 9.63327 35.2659 9.91982 35.2659 9.91982C35.1756 10.1022 35.0196 10.2436 34.8293 10.3155C34.4746 10.4793 34.2699 10.5885 34.4336 10.7113C34.5973 10.8341 34.188 11.2707 34.0242 11.4344C33.8605 11.5982 33.7104 11.4344 33.4784 11.1069C33.2465 10.7795 33.2328 11.6255 33.6695 11.6255C34.1061 11.6255 33.0691 12.0757 32.7552 12.5124C32.4414 12.949 32.5096 12.8672 32.0321 12.6352C31.5545 12.4033 31.7592 12.6352 31.3498 13.2219C30.9404 13.8087 30.7221 13.3447 30.7221 13.6722C30.7221 13.9997 30.5174 14.3818 30.2718 14.2999C30.0262 14.2181 30.2719 13.8633 29.958 14.2999C29.6442 14.7366 29.7943 14.0679 29.6851 13.6722C29.5759 13.2765 30.0399 13.4266 30.0399 13.4266C30.0405 13.3959 30.0342 13.3655 30.0215 13.3375C30.0087 13.3096 29.9898 13.2849 29.9663 13.2653C29.9427 13.2456 29.915 13.2315 29.8852 13.224C29.8554 13.2165 29.8244 13.2158 29.7943 13.2219C29.5623 13.2219 29.7943 12.8672 29.7943 12.8672C31.1078 11.6749 32.6053 10.7027 34.2289 9.98807L34.2699 9.96075ZM34.6246 39.1749C34.6246 39.1749 35.9891 39.0111 36.1802 39.4614C36.3712 39.9117 36.9852 39.4614 37.5447 39.6115C38.1041 39.7616 37.5447 39.0521 37.9813 39.1749C38.418 39.2977 38.377 38.7792 38.377 38.7792L39.0183 39.2568C39.0183 39.2568 38.1041 39.3796 38.2679 39.6115C38.4316 39.8435 39.1412 39.7753 39.9053 39.9799C40.6694 40.1846 40.8604 39.7753 40.8604 39.7753C40.8604 39.7753 40.7376 39.2568 39.9735 39.6115C39.2094 39.9663 39.455 38.9839 39.455 38.9839C39.455 38.9839 41.7747 38.3016 41.2971 39.093C41.1197 39.3932 41.4335 39.4887 41.9111 39.4887C41.8414 39.2853 41.8414 39.0645 41.9111 38.8611C42.184 37.7422 42.6206 37.5784 43.0709 37.6603C43.5212 37.7422 42.6616 38.7382 43.0709 38.7792C43.2656 38.7933 43.4492 38.8754 43.5894 39.0112L42.9891 39.3796C43.5076 39.2977 43.9442 39.2022 43.9442 39.2022L43.7396 38.4108C43.8826 38.0024 44.0466 37.6016 44.2308 37.21C44.5037 36.6096 44.5446 37.6466 44.34 37.8922C44.1353 38.1379 44.7493 38.6018 44.7493 38.6018C45.0396 38.3271 45.3974 38.1341 45.7863 38.0424C46.4959 37.8513 46.1001 38.3698 46.1001 38.3698C45.7021 38.4467 45.3307 38.6253 45.0222 38.8884C44.812 39.1407 44.6375 39.4207 44.5037 39.7207C44.5037 39.7207 46.182 39.4478 45.2678 39.4478C44.3536 39.4478 47.0144 38.4108 47.0144 38.4108C47.0144 38.4108 47.7376 37.9605 47.6557 38.4108C47.5738 38.8611 46.414 39.0794 46.414 39.0794C46.4714 39.1311 46.5394 39.1698 46.6133 39.1926C46.6872 39.2154 46.7652 39.2219 46.8418 39.2115C46.9184 39.2011 46.9919 39.1741 47.0571 39.1325C47.1222 39.0908 47.1775 39.0354 47.219 38.9702C47.6148 38.3289 49.8525 37.8104 49.8525 37.8104C47.3711 39.488 44.4679 40.4337 41.4745 40.5394C39.1022 40.6725 36.734 40.213 34.5837 39.2022L34.6246 39.1749Z" fill="#295135"/>
<path d="M161.617 45.097H157.523V30.3604H161.617V45.097ZM145.461 37.7287C145.58 36.6033 145.425 35.466 145.011 34.413C144.772 34.1304 144.469 33.9088 144.127 33.7665C143.785 33.6241 143.415 33.5651 143.046 33.5942H141.258V41.8768H143.046C143.416 41.9066 143.788 41.8465 144.13 41.7016C144.472 41.5567 144.774 41.3312 145.011 41.0444C145.295 40.5545 145.45 40.0005 145.461 39.4343V37.7287ZM149.555 37.7287C149.588 38.7949 149.542 39.8621 149.418 40.9216C149.303 41.5593 149.056 42.1662 148.694 42.704C148.333 43.2418 147.864 43.6988 147.317 44.0464C146.126 44.7819 144.744 45.1476 143.346 45.097H137.178V30.3604H143.346C144.744 30.3163 146.124 30.6815 147.317 31.411C147.866 31.7594 148.336 32.2185 148.698 32.7588C149.06 33.2992 149.305 33.909 149.418 34.5494C149.542 35.6044 149.587 36.667 149.555 37.7287ZM125.444 35.1089C125.443 34.9039 125.396 34.7018 125.306 34.5175C125.216 34.3333 125.086 34.1716 124.925 34.0446C124.569 33.7503 124.118 33.5952 123.656 33.6079H121.35V36.5962H123.629C124.112 36.6576 124.601 36.5306 124.993 36.2414C125.151 36.1004 125.274 35.9248 125.352 35.7282C125.43 35.5316 125.462 35.3196 125.444 35.1089ZM130.41 45.097H125.676L122.728 39.639H121.364V45.097H117.27V30.3604H123.847C125.331 30.3075 126.785 30.792 127.941 31.7249C128.472 32.1224 128.898 32.6431 129.184 33.2421C129.469 33.8411 129.604 34.5005 129.578 35.1634C129.588 36.0108 129.329 36.8396 128.839 37.5309C128.349 38.2222 127.652 38.7404 126.849 39.0113L130.41 45.097ZM105.235 39.8846L103.871 35.9549L102.37 39.8846H105.235ZM111.348 45.097H107.077L106.3 42.9139H101.183L100.378 45.097H96.0931L102.151 30.3604H105.304L111.348 45.097ZM92.7773 30.3604L87.7559 39.0932V45.097H83.6624V39.0932L78.641 30.3604H83.1029L85.7091 35.6683L88.3017 30.3604H92.7773ZM184.8 45.097H180.706V38.0426L177.595 42.9684H176.231L173.379 38.0426V45.097H169.285V30.3604H173.297L177.036 36.8691L180.774 30.3604H184.786L184.8 45.097Z" fill="#295135"/>
<path d="M102.863 60.1341H101.976L105.51 49.4773H106.41L102.863 60.1341ZM93.8296 50.5825V59.1517C94.0296 59.1638 94.2301 59.1638 94.43 59.1517C96.1629 59.1517 97.8413 58.1965 97.8413 54.6215C97.8413 51.8925 96.777 50.528 94.5665 50.528C94.3197 50.5239 94.0731 50.5422 93.8296 50.5825ZM92.2468 60.1341V49.7775C92.9469 49.6332 93.6606 49.5645 94.3754 49.5728C95.5146 49.5044 96.6476 49.7853 97.623 50.3778C98.2716 50.8724 98.7835 51.5241 99.1106 52.2713C99.4377 53.0185 99.569 53.8367 99.4923 54.6488C99.5751 55.4683 99.468 56.2958 99.1793 57.0672C98.8906 57.8387 98.4281 58.5333 97.8276 59.0971C96.7352 59.9299 95.3774 60.3372 94.007 60.2432C93.4173 60.239 92.8287 60.1888 92.2468 60.0932V60.1341ZM87.9213 49.6274H89.5178V60.175H87.9349L87.9213 49.6274ZM81.167 56.0406H83.7868L83.0773 53.3116C82.8726 52.5611 82.6816 51.6878 82.5178 50.8964C82.2722 51.7014 82.0675 52.6157 81.8765 53.3116L81.167 56.0406ZM83.9915 57.023H80.935L80.0208 60.175H78.4926L81.6582 49.6274H83.4048L86.4749 60.175H84.9194L83.9915 57.023Z" fill="#80BC00"/>
<path d="M162.708 4.17529H168.344L175.548 24.8749H169.913L168.658 21.2317H162.395L161.139 24.8203H155.504L162.708 4.17529ZM165.533 12.3623L163.909 17.0153H167.157L165.533 12.3623ZM104.921 4.17529H110.557L117.761 24.8749H112.126L110.871 21.2862H104.608L103.352 24.8749H97.7032L104.921 4.17529ZM107.746 12.3623L106.122 17.0153H109.37L107.746 12.3623ZM122.06 17.6293L114.855 4.20257H120.477L124.871 12.3896L129.264 4.20257H134.886L127.722 17.6021V24.8749H122.101L122.06 17.6293ZM89.6526 4.17529H95.288V24.8749H89.6526V16.6879H84.0581V24.8749H78.4227V4.17529H84.0581V11.8984H89.6526V4.17529ZM178.796 4.17529H189.999V8.95107H184.418V24.9431H178.796V8.95107H173.215V4.17529H178.796ZM147.33 10.9296C147.337 10.6454 147.276 10.3637 147.153 10.1076C147.029 9.85145 146.847 9.62815 146.621 9.45594C146.128 9.04615 145.501 8.83239 144.861 8.85555H141.64V12.9491H144.861C145.496 12.969 146.119 12.7663 146.621 12.376C146.839 12.2024 147.015 11.9826 147.138 11.7325C147.261 11.4824 147.326 11.2082 147.33 10.9296ZM154.276 24.8749H147.658L143.564 17.22H141.654V24.8749H135.909V4.32537H145.093C147.126 4.25103 149.12 4.89339 150.728 6.14019C151.459 6.702 152.046 7.42885 152.442 8.26128C152.839 9.09372 153.032 10.0081 153.007 10.9296C153.024 12.1099 152.668 13.2655 151.989 14.2312C151.311 15.1968 150.344 15.923 149.227 16.3058L154.276 24.8749Z" fill="#295135"/>
<path d="M119.537 54.9077L120.219 53.1065C120.89 54.2779 121.295 55.5821 121.406 56.9272C121.299 57.8 120.991 58.6361 120.506 59.3697H111.718C107.748 59.3697 108.062 56.4496 108.471 55.5081C108.88 54.5666 110.368 52.5062 109.303 54.6758C109.145 54.9956 109.069 55.3493 109.08 55.7057C109.092 56.0621 109.191 56.4102 109.369 56.7192C109.547 57.0282 109.799 57.2884 110.101 57.477C110.404 57.6656 110.749 57.7767 111.104 57.8005H120.451C120.738 57.0636 119.537 54.9077 119.537 54.9077ZM124.695 60.0246C124.695 60.0246 124.558 55.9311 123.863 51.0325C123.77 49.6747 124.146 48.3262 124.927 47.2119C124.927 47.2119 125.377 53.3795 125.527 56.2449C125.677 59.1104 124.654 60.0246 124.654 60.0246H124.695ZM145.79 59.1377C142.333 59.2923 139.05 59.4015 135.938 59.4652C135.938 59.4652 134.41 59.0422 134.41 57.664C134.41 57.664 133.728 59.0286 133.046 59.3287C132.077 59.7927 127.929 60.0655 128.12 59.0012C128.311 57.9369 128.625 56.2722 128.816 56.3405C129.007 56.4087 128.133 58.2235 130.18 58.2235C132.227 58.2235 133.864 57.7868 133.96 56.9272C133.837 55.6864 133.572 54.4639 133.168 53.2839L134.055 51.7148C134.394 53.0608 134.641 54.4285 134.792 55.8083C134.792 55.8083 134.792 57.8278 136.402 57.8278H138.981C138.652 57.7441 138.37 57.5333 138.196 57.2418C138.022 56.9502 137.971 56.6015 138.053 56.2722C138.34 55.0305 141.642 51.7421 143.211 53.2294C144.78 54.7167 145.012 55.6309 144.739 55.5354C144.467 55.4399 143.511 53.9116 141.847 54.3346C140.182 54.7576 139.022 55.0715 139.213 55.5763C139.404 56.0812 139.623 57.2683 142.434 57.8278L146.527 57.6913L145.79 59.1377ZM182.55 50.3912C182.461 50.354 182.381 50.2971 182.317 50.2246C182.252 50.1522 182.205 50.0661 182.179 49.9729C182.153 49.8797 182.148 49.7817 182.165 49.6864C182.182 49.591 182.22 49.5008 182.277 49.4224C182.7 48.7811 183.341 47.6212 183.341 47.6212C183.341 47.6212 182.891 48.4945 183.983 49.054C185.074 49.6134 184.57 49.8317 184.57 49.8317L183.983 51.1962H183.669C183.669 51.1962 184.447 56.9954 184.078 58.2371C183.71 59.4788 183.614 59.5334 183.614 59.5334H178.511V58.3736C178.511 58.3736 177.815 59.6289 177.31 59.6289H173.804L173.162 60.2702L169.287 58.0734C169.287 58.0734 168.741 59.547 167.923 59.547H165.289L164.962 59.0012C164.522 59.3447 163.999 59.566 163.447 59.6426C162.752 59.4982 162.093 59.2151 161.509 58.8102C160.908 59.2842 160.159 59.5306 159.394 59.5061H157.143C157.143 59.5061 156.079 59.0422 156.079 58.6738C156.079 58.3053 155.669 59.547 154.509 59.547H149.72C149.72 59.547 149.297 51.8512 148.847 48.822L149.897 47.1982C149.897 47.1982 150.047 49.9273 150.225 52.6563C150.402 55.3853 150.416 57.9915 151.33 57.9506C152.244 57.9096 155.287 57.9506 155.287 57.9506C155.287 57.9506 156.488 58.2371 156.12 56.395L157.552 54.9623C157.552 54.9623 157.552 57.1592 156.774 57.896C158.306 58.2437 159.896 58.2437 161.427 57.896V56.5315L162.942 55.0169L162.11 57.7459C162.91 58.0125 163.768 58.0596 164.593 57.8823L164.361 56.1494L165.385 54.7849C165.571 55.8181 165.571 56.8765 165.385 57.9096H168.564C168.564 57.9096 169.069 57.9097 169.342 56.9409C169.615 55.9721 169.847 55.7537 170.911 55.0988C171.975 54.4438 173.121 53.9935 173.121 54.5939C173.121 55.1943 173.626 57.7732 174.827 57.8551C176.028 57.9369 178.293 57.8551 178.293 57.8551C178.098 54.9876 177.757 52.132 177.269 49.2996L178.525 47.4984C178.525 47.4984 178.757 50.2275 179.071 54.4574C179.248 56.7907 179.289 57.5549 179.303 57.7732H183.396C183.311 55.2917 183.015 52.8221 182.509 50.3912H182.55ZM170.16 56.7089C171.689 57.664 172.603 58.0734 172.889 58.0734C172.827 57.374 172.608 56.6977 172.248 56.0948C171.689 55.0578 170.16 56.7089 170.16 56.7089ZM115.321 51.4828L116.972 52.5881L116.276 53.7479L114.611 52.6426L113.929 53.8707L112.169 52.7109L112.865 51.5238L114.611 52.6426L115.321 51.4828Z" fill="#80BC00"/>
</svg>
