<svg width="203" height="340" viewBox="0 0 203 340" fill="none" xmlns="http://www.w3.org/2000/svg">
<path d="M38.907 4.59811e-05H132.895C134.074 -0.00455945 135.226 0.354983 136.194 1.02984C137.163 1.70469 137.901 2.66213 138.308 3.77207L202.631 177.588C202.96 178.462 203.071 179.404 202.956 180.331C202.84 181.258 202.502 182.144 201.969 182.91C201.436 183.677 200.725 184.302 199.897 184.732C199.07 185.161 198.15 185.383 197.218 185.376H109.635C108.694 185.36 107.763 185.576 106.925 186.005C106.087 186.434 105.367 187.063 104.828 187.837C104.289 188.61 103.948 189.505 103.835 190.441C103.722 191.378 103.84 192.328 104.179 193.208L157.619 331.938C158.193 333.259 158.254 334.747 157.787 336.11C157.321 337.473 156.362 338.611 155.101 339.299C153.839 339.988 152.365 340.177 150.971 339.83C149.576 339.483 148.362 338.624 147.568 337.424L1.11672 135.62C0.485432 134.76 0.105352 133.74 0.0189288 132.675C-0.0674948 131.61 0.143169 130.542 0.627374 129.591C1.11158 128.639 1.85024 127.841 2.76074 127.287C3.67125 126.732 4.71767 126.442 5.78307 126.449H70.9254C71.8643 126.454 72.7901 126.228 73.6216 125.79C74.4531 125.353 75.165 124.718 75.6949 123.941C76.2249 123.164 76.5568 122.268 76.6614 121.332C76.7661 120.397 76.6404 119.45 76.2953 118.574L33.5371 7.86083C33.195 6.98596 33.0717 6.04045 33.1778 5.10678C33.2839 4.17312 33.6163 3.27967 34.1459 2.5044C34.6755 1.72914 35.3863 1.0956 36.2162 0.659069C37.0461 0.222539 37.9698 -0.00370872 38.907 4.59811e-05Z" fill="#FCD100" fill-opacity="0.2"/>
</svg>
