<svg width="202" height="321" viewBox="0 0 202 321" fill="none" xmlns="http://www.w3.org/2000/svg">
<path d="M133.874 312.021C126.513 315.735 118.813 318.738 110.88 320.986V262.662L159.775 213.833C160.83 212.779 161.423 211.349 161.423 209.859C161.423 208.368 160.83 206.938 159.775 205.884C158.719 204.83 157.288 204.238 155.795 204.238C154.302 204.238 152.871 204.83 151.816 205.884L110.934 246.725V178.513L159.829 129.683C160.878 128.629 161.467 127.202 161.467 125.716C161.467 124.229 160.878 122.803 159.829 121.748C158.772 120.696 157.341 120.106 155.849 120.106C154.358 120.106 152.926 120.696 151.87 121.748L110.988 162.589V82.5626C110.981 79.9424 109.936 77.4315 108.081 75.5787C106.225 73.7259 103.711 72.6818 101.087 72.6746C98.4612 72.6782 95.9434 73.7207 94.0852 75.5739C92.227 77.4271 91.1797 79.94 91.1725 82.5626V162.589L50.291 121.762C49.2368 120.711 47.808 120.12 46.3183 120.12C44.8287 120.12 43.3999 120.711 42.3457 121.762C41.2965 122.816 40.7076 124.243 40.7076 125.729C40.7076 127.216 41.2965 128.642 42.3457 129.697L91.2404 178.526V246.779L50.3589 205.966C49.3035 204.914 47.8728 204.323 46.3814 204.324C44.8901 204.326 43.4604 204.919 42.4068 205.973C41.3531 207.027 40.762 208.455 40.7632 209.945C40.7645 211.434 41.3581 212.862 42.4136 213.914L91.3083 262.676V321C83.3767 318.745 75.6775 315.743 68.3142 312.034C-51.2199 251.594 3.18908 54.4178 100.979 0C198.768 54.4178 253.164 251.594 133.874 312.021Z" fill="#80BC00" fill-opacity="0.2"/>
</svg>
